<?xml version="1.0" standalone="no"?>
<!DOCTYPE svg PUBLIC "-//W3C//DTD SVG 20010904//EN"
 "http://www.w3.org/TR/2001/REC-SVG-20010904/DTD/svg10.dtd">
<svg version="1.0" xmlns="http://www.w3.org/2000/svg"
 width="400.000000pt" height="400.000000pt" viewBox="0 0 400.000000 400.000000"
 preserveAspectRatio="xMidYMid meet">

<g transform="translate(0.000000,400.000000) scale(0.100000,-0.100000)"
fill="#000000" stroke="none">
<path d="M1017 2982 l-1007 -1007 0 -74 c0 -92 24 -257 55 -381 142 -569 522
-1042 1046 -1305 282 -142 562 -207 889 -207 331 0 602 63 895 209 581 290
983 847 1081 1498 21 147 21 423 0 570 -100 667 -518 1231 -1126 1519 -233
110 -539 186 -750 186 l-75 0 -1008 -1008z m1641 -27 l652 -560 0 -732 0 -733
-700 0 -700 0 0 298 0 297 -47 35 c-99 74 -130 194 -75 301 90 178 334 178
425 0 53 -107 23 -228 -75 -301 l-48 -35 0 -207 0 -208 520 0 520 0 2 558 c2
306 1 578 -2 604 l-5 47 -560 480 c-308 264 -563 479 -567 478 -4 -1 -262
-220 -573 -487 l-565 -484 0 -598 0 -598 380 0 380 0 0 -90 0 -90 -465 0 -465
0 0 734 0 733 653 561 c358 308 654 560 658 559 3 -1 298 -254 657 -562z
m-528 -355 c148 -24 305 -95 417 -189 70 -58 79 -75 69 -117 -14 -54 -80 -49
-136 11 -14 15 -56 46 -95 70 -189 116 -422 142 -628 69 -80 -29 -199 -98
-237 -139 -40 -43 -74 -57 -104 -43 -29 13 -40 39 -32 73 8 30 119 121 207
169 164 90 358 124 539 96z m13 -205 c38 -8 101 -30 140 -49 81 -39 190 -123
195 -150 7 -33 -8 -67 -34 -76 -30 -12 -49 -3 -114 50 -185 154 -478 154 -660
1 -64 -53 -84 -63 -113 -52 -42 16 -49 63 -17 104 28 35 143 110 210 138 120
49 264 62 393 34z m-1 -206 c68 -23 160 -79 183 -112 47 -67 -20 -130 -86 -83
-117 85 -195 108 -300 88 -58 -11 -101 -32 -178 -88 -50 -36 -101 -14 -101 44
0 46 106 123 215 158 65 21 196 17 267 -7z"/>
</g>
</svg>
